<?xml version="1.0" standalone="no"?>
<!DOCTYPE svg PUBLIC "-//W3C//DTD SVG 20010904//EN"
 "http://www.w3.org/TR/2001/REC-SVG-20010904/DTD/svg10.dtd">
<svg version="1.0" xmlns="http://www.w3.org/2000/svg"
 width="2298.000000pt" height="2298.000000pt" viewBox="0 0 2298.000000 2298.000000"
 preserveAspectRatio="xMidYMid meet">
<metadata>
Created by potrace 1.11, written by Peter Selinger 2001-2013
</metadata>
<g transform="translate(0.000000,2298.000000) scale(0.100000,-0.100000)"
fill="#000000" stroke="none">
<path d="M13800 22965 c-139 -28 -214 -68 -310 -165 -50 -50 -77 -88 -112
-160 -26 -52 -49 -109 -52 -125 -3 -17 -8 -41 -11 -55 -3 -14 -21 -115 -40
-225 -20 -110 -43 -236 -51 -280 -8 -44 -24 -129 -34 -190 -11 -60 -22 -122
-25 -137 -7 -37 -8 -44 -49 -273 -20 -110 -41 -220 -45 -245 -5 -25 -14 -72
-20 -105 -49 -269 -81 -445 -85 -470 -3 -16 -8 -41 -11 -55 -3 -14 -14 -77
-25 -140 -11 -63 -22 -126 -25 -140 -3 -14 -8 -38 -10 -55 -3 -16 -8 -37 -10
-45 -2 -8 -6 -33 -9 -55 -4 -22 -11 -62 -16 -90 -5 -27 -12 -63 -15 -80 -23
-120 -34 -185 -40 -215 -3 -19 -8 -42 -10 -50 -2 -8 -7 -37 -11 -65 -3 -27 -8
-53 -10 -56 -2 -4 -6 -24 -9 -45 -3 -22 -10 -64 -15 -94 -6 -30 -13 -75 -16
-100 -3 -25 -9 -61 -14 -80 -5 -19 -11 -55 -14 -80 -3 -25 -8 -56 -11 -70 -3
-14 -7 -38 -10 -55 -2 -16 -9 -57 -14 -90 -6 -33 -13 -77 -17 -99 -5 -37 -7
-48 -18 -106 -3 -14 -8 -43 -11 -65 -8 -56 -14 -92 -25 -150 -5 -27 -11 -63
-14 -80 -2 -16 -9 -57 -15 -90 -6 -33 -13 -76 -16 -95 -3 -19 -12 -66 -20
-105 -7 -38 -17 -90 -20 -115 -4 -24 -8 -47 -10 -50 -2 -3 -6 -23 -9 -45 -4
-22 -11 -65 -16 -95 -5 -30 -12 -68 -15 -85 -5 -28 -8 -47 -20 -105 -2 -14 -7
-41 -10 -60 -3 -19 -8 -46 -10 -60 -10 -50 -15 -75 -21 -114 -3 -22 -7 -43 -9
-46 -1 -3 -6 -27 -9 -55 -4 -27 -11 -66 -16 -85 -5 -19 -11 -53 -14 -75 -4
-22 -13 -74 -21 -115 -8 -41 -17 -91 -20 -110 -5 -33 -33 -182 -41 -225 -2
-11 -9 -47 -14 -80 -5 -33 -12 -71 -15 -85 -8 -39 -8 -160 -1 -210 44 -291
277 -502 676 -614 30 -8 71 -18 90 -21 19 -3 51 -10 70 -15 19 -5 60 -11 90
-14 152 -16 246 -27 260 -31 8 -2 40 -7 70 -10 30 -4 87 -13 125 -20 39 -8 87
-17 109 -21 79 -12 356 -74 561 -126 88 -22 167 -41 175 -43 94 -22 554 -157
805 -236 17 -5 95 -28 175 -50 129 -35 471 -153 517 -178 10 -5 97 -42 193
-82 161 -66 212 -88 355 -153 28 -13 68 -31 90 -41 21 -10 87 -40 145 -68 58
-27 141 -66 186 -87 108 -51 594 -294 716 -358 54 -28 117 -56 140 -63 24 -6
52 -14 63 -17 45 -12 175 -10 221 4 170 51 246 163 407 594 57 153 223 649
232 690 3 16 83 287 186 629 17 57 32 111 34 120 3 9 32 108 65 221 34 113 81
273 105 355 24 83 98 335 164 562 146 498 138 472 262 918 55 198 127 457 160
575 33 118 62 224 64 234 3 10 9 33 14 50 16 49 124 487 137 556 3 14 11 46
19 73 8 26 12 47 9 47 -3 0 0 8 5 18 5 9 11 31 14 47 2 17 10 50 17 75 7 25
14 54 16 65 4 22 20 91 35 145 8 32 66 275 74 310 2 8 15 62 29 120 39 163 45
215 42 355 -4 150 -19 214 -77 332 -77 159 -197 252 -559 435 -246 124 -673
319 -850 387 -47 18 -94 37 -105 42 -170 73 -1064 375 -1196 404 -9 2 -37 10
-63 19 -25 9 -80 25 -123 36 -96 26 -155 42 -255 70 -43 11 -85 23 -95 25 -10
2 -81 20 -158 40 -77 19 -150 38 -162 40 -13 3 -33 7 -45 10 -13 3 -32 7 -43
9 -11 2 -72 16 -135 31 -145 33 -140 32 -185 39 -20 4 -40 8 -44 11 -4 2 -30
7 -57 11 -27 3 -51 7 -54 9 -5 3 -241 47 -320 60 -19 3 -60 10 -90 15 -30 5
-73 12 -95 15 -22 4 -51 8 -64 10 -13 2 -45 7 -70 11 -25 3 -57 7 -70 10 -13
2 -45 6 -70 10 -25 3 -56 7 -69 9 -13 2 -53 7 -90 10 -37 3 -78 8 -92 11 -14
2 -52 7 -85 9 -33 3 -80 7 -105 10 -70 7 -176 15 -280 20 -84 5 -158 14 -240
31 -58 13 -357 11 -420 -1z"/>
<path d="M11379 21925 c-2 -1 -62 -6 -134 -10 -71 -4 -146 -8 -165 -10 -19 -2
-91 -6 -160 -10 -69 -4 -141 -8 -160 -10 -19 -2 -80 -6 -135 -10 -55 -3 -111
-8 -125 -10 -14 -2 -56 -6 -95 -10 -91 -8 -255 -27 -345 -40 -82 -12 -118 -17
-145 -21 -16 -3 -42 -7 -57 -9 -15 -2 -35 -6 -45 -9 -10 -2 -38 -7 -63 -10
-115 -15 -582 -110 -745 -153 -33 -8 -69 -17 -80 -19 -11 -2 -87 -21 -170 -43
-1015 -266 -1481 -465 -1880 -801 -194 -164 -389 -390 -420 -489 l-7 -23 110
6 c121 8 136 10 226 32 34 8 68 16 76 18 8 2 44 12 80 21 36 9 72 18 80 20 8
2 56 14 105 28 50 14 171 46 270 72 99 25 200 53 225 60 25 8 56 16 70 19 14
3 52 12 85 21 66 18 385 94 425 101 14 3 53 11 88 19 34 8 77 17 95 20 17 4
50 10 72 15 39 9 231 45 290 54 83 14 306 45 350 50 28 4 60 8 72 10 12 3 50
7 85 11 35 3 74 8 88 10 14 2 54 6 90 10 36 3 81 8 100 10 35 4 103 10 240 20
41 3 102 8 135 10 164 12 440 23 771 30 226 5 328 9 529 20 272 15 338 22 405
41 86 24 158 78 195 145 14 26 147 455 199 644 26 91 7 145 -57 160 -31 7
-562 17 -568 10z"/>
<path d="M5960 20426 c-30 -18 -140 -84 -245 -146 -104 -63 -211 -129 -237
-147 -26 -18 -50 -33 -53 -33 -7 0 -419 -278 -512 -345 -45 -33 -91 -67 -103
-75 -13 -8 -28 -19 -34 -25 -6 -5 -56 -44 -111 -85 -248 -185 -550 -436 -810
-674 -172 -157 -530 -514 -522 -522 7 -7 66 31 142 91 40 32 376 304 410 332
11 10 67 52 125 96 58 43 112 84 120 90 35 29 224 149 325 208 103 59 328 201
385 242 218 157 466 348 531 409 8 7 48 42 89 78 166 144 566 527 558 536 -2
1 -28 -12 -58 -30z"/>
<path d="M10758 20285 c-2 -2 -91 -6 -198 -10 -107 -3 -226 -8 -265 -10 -72
-4 -226 -12 -395 -20 -52 -2 -135 -7 -185 -10 -49 -3 -124 -8 -165 -10 -41 -3
-104 -7 -140 -10 -36 -3 -96 -7 -135 -10 -38 -3 -95 -7 -125 -10 -30 -2 -86
-7 -125 -10 -38 -4 -83 -8 -100 -10 -16 -2 -61 -7 -100 -10 -38 -4 -77 -8 -85
-10 -8 -1 -42 -6 -75 -9 -33 -4 -87 -11 -120 -16 -33 -5 -80 -12 -105 -15 -47
-7 -370 -61 -405 -69 -11 -2 -69 -14 -130 -25 -60 -12 -126 -26 -145 -31 -19
-5 -53 -12 -75 -15 -22 -4 -49 -9 -60 -12 -11 -4 -24 -8 -30 -9 -5 -1 -50 -11
-98 -23 -49 -11 -101 -23 -115 -26 -15 -2 -43 -10 -62 -15 -19 -6 -44 -13 -55
-16 -27 -5 -307 -82 -370 -100 -27 -8 -57 -16 -65 -18 -47 -11 -338 -102 -410
-128 -297 -107 -491 -264 -594 -482 -19 -39 -62 -161 -95 -271 -34 -110 -65
-213 -70 -230 -15 -48 -90 -327 -95 -355 -2 -14 -16 -79 -31 -145 -14 -66 -28
-131 -30 -145 -2 -14 -9 -50 -15 -80 -6 -30 -13 -68 -15 -85 -3 -16 -7 -41
-10 -55 -3 -14 -7 -38 -9 -55 -28 -178 -36 -228 -41 -274 -4 -30 -8 -61 -10
-70 -1 -9 -6 -45 -10 -81 -4 -36 -8 -72 -10 -80 -4 -24 -15 -129 -21 -205 -3
-38 -7 -81 -9 -95 -2 -14 -7 -72 -10 -130 -3 -58 -8 -125 -10 -150 -11 -120
-18 -406 -20 -818 -2 -480 1 -525 46 -618 27 -58 85 -112 149 -143 69 -32 191
-38 290 -14 62 15 617 162 690 183 58 17 297 81 317 85 10 2 38 8 63 14 25 7
56 14 69 17 14 3 28 7 31 9 4 2 21 7 39 10 18 3 70 14 114 24 163 38 505 102
622 116 28 4 57 8 65 10 8 2 39 7 69 10 30 4 61 8 70 10 9 1 45 6 81 10 36 4
73 9 84 11 10 2 44 6 75 9 31 4 67 8 81 10 14 2 52 7 85 10 33 3 74 8 90 10
31 4 134 15 195 20 107 10 178 17 200 20 23 3 54 6 215 20 28 2 73 6 100 10
28 3 77 7 110 9 33 3 83 7 110 10 28 3 84 8 125 12 41 3 86 8 100 11 14 2 180
5 370 8 190 2 388 5 440 6 105 2 207 20 284 50 61 25 172 97 204 134 67 77
124 182 136 251 3 16 8 38 10 49 2 11 7 52 11 90 4 39 9 79 11 89 2 11 6 51 9
90 3 39 7 78 10 86 2 8 6 42 10 75 3 33 8 85 10 115 3 30 8 70 11 87 3 18 7
54 9 80 8 81 19 184 30 272 4 25 8 70 11 100 2 31 6 67 9 81 2 14 7 57 11 95
3 39 8 79 10 90 3 11 6 40 9 65 6 53 14 115 20 150 2 14 7 49 10 79 4 30 8 61
10 70 1 9 6 41 10 71 8 67 12 92 20 150 11 75 14 93 20 140 3 25 8 56 10 70 2
14 7 45 10 70 8 55 14 97 20 130 2 14 7 50 11 80 3 30 7 57 9 60 2 3 6 32 9
65 4 33 9 67 11 75 2 8 7 35 10 60 8 60 15 109 20 140 4 22 32 205 39 255 2
11 6 45 10 75 4 30 9 62 11 70 2 8 7 35 10 60 3 25 8 59 11 75 7 42 14 84 19
125 3 19 12 76 20 125 51 312 -14 397 -350 459 -68 13 -406 21 -417 11z"/>
<path d="M4659 18826 c-2 -2 -29 -7 -60 -10 -78 -9 -108 -19 -181 -59 -35 -19
-90 -49 -123 -67 -33 -18 -67 -38 -75 -45 -8 -6 -51 -33 -95 -59 -107 -63 -98
-57 -280 -176 -205 -134 -442 -302 -561 -400 -17 -14 -48 -38 -69 -55 -22 -16
-69 -55 -105 -84 -354 -296 -712 -659 -975 -991 -33 -41 -62 -77 -65 -80 -3
-3 -44 -57 -91 -120 -273 -366 -509 -765 -689 -1167 -88 -194 -87 -192 -110
-253 -11 -30 -25 -64 -30 -75 -11 -25 -75 -206 -106 -300 -55 -169 -136 -472
-168 -630 -4 -16 -9 -41 -12 -55 -9 -42 -52 -282 -59 -330 -3 -25 -8 -56 -10
-70 -4 -29 -13 -99 -20 -167 -3 -27 -8 -70 -12 -98 -9 -68 -10 -83 -18 -215
-4 -63 -8 -137 -10 -165 -5 -78 -6 -288 -2 -310 3 -11 8 -63 12 -115 4 -52 9
-104 11 -114 2 -11 6 -51 9 -90 3 -39 8 -87 10 -106 2 -19 7 -62 10 -95 3 -33
7 -78 10 -100 2 -22 7 -62 10 -90 3 -27 7 -66 10 -85 2 -19 7 -60 10 -90 18
-167 23 -190 53 -230 47 -62 75 -90 90 -90 7 0 41 19 74 42 49 35 76 66 141
163 112 167 260 364 408 540 174 208 190 225 404 440 160 160 224 221 359 340
128 113 266 224 428 344 73 55 145 109 159 120 78 60 426 286 597 387 279 166
282 167 390 269 72 67 136 153 177 235 15 30 31 63 35 72 13 24 47 165 55 228
4 30 9 390 10 800 2 410 6 759 8 775 3 17 8 77 12 135 4 58 8 119 10 135 2 17
6 57 10 90 7 72 15 141 20 175 2 14 7 48 11 75 3 28 8 57 9 65 10 60 17 103
20 123 3 24 22 135 30 180 32 168 123 542 170 697 14 47 27 92 29 100 6 23
100 303 130 388 15 40 29 99 32 130 3 31 7 70 9 87 2 16 -1 35 -7 42 -10 13
-30 17 -39 9z"/>
<path d="M20294 17195 c-54 -22 -115 -113 -127 -190 -3 -16 -19 -87 -36 -157
-17 -69 -33 -138 -36 -152 -3 -14 -7 -36 -10 -48 -2 -13 -18 -71 -34 -129 -17
-58 -32 -117 -35 -130 -7 -34 -90 -320 -137 -474 -100 -324 -231 -702 -384
-1110 -27 -72 -15 -43 -135 -345 -104 -260 -112 -281 -141 -347 -11 -24 -19
-45 -19 -47 0 -3 -13 -33 -29 -68 -66 -144 -121 -298 -134 -377 -18 -107 -15
-231 8 -314 22 -76 84 -203 120 -244 5 -6 28 -33 49 -60 46 -56 105 -108 351
-308 224 -182 374 -318 654 -596 49 -49 223 -231 307 -320 45 -49 219 -251
333 -387 117 -140 373 -487 488 -662 92 -139 163 -251 163 -255 0 -3 15 -28
34 -57 45 -71 150 -258 220 -393 71 -135 109 -183 171 -214 127 -63 222 -6
312 189 29 63 151 347 178 415 40 100 172 475 180 508 2 12 14 54 25 92 11 39
22 79 24 90 3 11 14 57 25 102 27 104 52 237 67 348 3 28 8 52 9 55 2 3 6 34
10 69 4 34 8 70 10 80 2 10 6 42 10 72 3 30 8 65 10 79 3 14 7 48 10 75 3 28
9 84 14 125 10 73 16 127 27 220 3 25 7 59 9 75 2 17 6 55 10 85 4 30 9 69 11
85 10 61 11 202 3 260 -4 33 -11 137 -14 231 -3 93 -7 180 -9 191 -3 12 -7 55
-11 97 -3 41 -7 83 -9 93 -2 10 -7 41 -10 68 -4 28 -8 61 -11 75 -3 14 -7 39
-10 55 -26 155 -81 369 -141 550 -36 108 -80 227 -102 276 -11 24 -30 69 -43
99 -45 110 -207 418 -292 556 -108 176 -208 318 -447 639 -225 301 -254 336
-480 575 -19 21 -73 77 -119 126 -118 126 -490 502 -602 609 -52 50 -112 99
-134 110 -49 23 -111 27 -151 10z"/>
<path d="M10187 14504 c-1 -1 -65 -5 -142 -8 -77 -4 -178 -9 -225 -11 -47 -2
-139 -7 -205 -10 -219 -11 -399 -21 -530 -31 -43 -3 -111 -7 -151 -9 -65 -4
-101 -6 -274 -20 -30 -2 -93 -7 -140 -10 -47 -4 -96 -8 -110 -10 -14 -2 -63
-7 -110 -10 -47 -4 -96 -9 -110 -10 -14 -2 -54 -6 -90 -10 -36 -3 -72 -8 -80
-10 -8 -2 -44 -7 -80 -10 -36 -3 -72 -8 -80 -10 -8 -2 -35 -7 -60 -10 -64 -9
-129 -19 -222 -36 -32 -5 -70 -12 -85 -15 -16 -2 -39 -7 -53 -10 -14 -3 -41
-8 -60 -10 -19 -3 -43 -7 -52 -10 -10 -3 -30 -7 -45 -10 -14 -3 -97 -21 -182
-40 -86 -19 -167 -37 -181 -40 -19 -3 -387 -98 -500 -129 -56 -15 -370 -108
-440 -130 -210 -66 -345 -180 -406 -341 -49 -132 -53 -363 -9 -589 15 -77 29
-149 31 -160 2 -11 6 -31 9 -45 2 -14 7 -41 10 -60 3 -19 8 -42 10 -50 2 -8 7
-31 10 -50 3 -19 12 -66 20 -105 8 -38 19 -97 25 -130 5 -33 12 -69 14 -80 2
-11 25 -123 51 -250 25 -126 50 -246 55 -265 5 -19 11 -48 14 -65 7 -39 114
-471 127 -510 5 -16 27 -97 49 -180 23 -82 47 -172 55 -200 102 -347 139 -475
145 -500 8 -31 143 -470 206 -670 19 -60 36 -117 38 -125 12 -43 79 -258 86
-275 5 -11 27 -80 50 -153 71 -230 147 -417 271 -667 129 -262 198 -327 350
-332 88 -2 118 4 369 81 102 31 194 58 205 60 11 3 67 16 125 31 58 14 119 28
135 31 17 3 44 9 60 14 54 16 335 68 515 95 134 20 158 23 220 30 30 3 66 8
80 10 67 9 184 21 302 30 47 3 99 8 115 10 15 2 91 6 168 10 77 4 165 9 195
10 30 2 138 4 240 6 218 3 310 17 394 58 98 48 159 119 197 228 33 96 42 195
74 778 2 39 7 138 10 220 4 83 8 177 10 210 2 33 6 134 10 225 3 91 8 201 10
245 3 44 7 141 10 215 5 147 12 295 20 435 3 50 7 140 10 200 3 61 7 139 10
175 2 36 7 115 10 175 3 61 8 128 10 150 2 22 7 94 11 160 3 66 8 140 9 165 2
25 6 90 10 145 3 55 8 125 10 155 3 30 7 102 10 160 3 58 8 125 10 150 2 25 7
90 10 145 3 55 8 123 10 150 2 28 7 93 10 145 12 193 14 217 20 300 12 186 18
257 22 300 13 120 5 267 -19 355 -53 192 -186 308 -393 341 -38 6 -223 13
-228 8z"/>
<path d="M12729 14286 c-2 -2 -26 -6 -54 -10 -78 -9 -119 -21 -190 -57 -154
-77 -257 -241 -281 -447 -3 -31 -8 -65 -10 -76 -2 -10 -6 -44 -10 -75 -3 -31
-7 -63 -9 -71 -1 -8 -6 -40 -10 -70 -3 -30 -8 -66 -10 -80 -2 -14 -9 -63 -15
-110 -12 -98 -13 -106 -35 -262 -8 -64 -18 -136 -20 -160 -3 -24 -7 -52 -9
-63 -2 -11 -7 -47 -10 -80 -4 -33 -11 -87 -16 -120 -5 -33 -12 -82 -15 -110
-3 -27 -8 -61 -10 -75 -3 -14 -7 -45 -10 -70 -3 -25 -8 -63 -11 -85 -8 -54
-11 -80 -19 -145 -4 -30 -9 -64 -11 -75 -2 -11 -6 -44 -10 -73 -3 -29 -7 -61
-9 -71 -2 -10 -6 -42 -10 -72 -3 -30 -8 -65 -10 -79 -2 -14 -7 -45 -10 -70 -4
-25 -8 -57 -10 -71 -3 -14 -7 -43 -10 -64 -6 -47 -14 -104 -25 -180 -5 -33
-12 -87 -16 -120 -3 -33 -8 -63 -10 -66 -2 -4 -6 -31 -9 -60 -3 -30 -14 -110
-25 -179 -10 -69 -22 -147 -25 -175 -4 -27 -8 -57 -11 -66 -3 -9 -6 -34 -9
-55 -7 -72 -15 -129 -25 -184 -5 -30 -12 -77 -15 -105 -7 -56 -13 -98 -20
-135 -5 -32 -14 -94 -21 -145 -2 -22 -14 -103 -25 -180 -11 -77 -22 -158 -25
-180 -3 -22 -7 -51 -9 -65 -2 -14 -7 -50 -10 -80 -4 -30 -8 -57 -10 -60 -1 -3
-6 -36 -9 -75 -4 -38 -9 -77 -11 -85 -2 -8 -6 -42 -10 -75 -3 -33 -8 -67 -10
-75 -2 -8 -6 -46 -10 -83 -3 -37 -8 -77 -10 -88 -8 -41 -17 -146 -17 -204 -1
-160 32 -261 113 -346 67 -70 137 -106 284 -145 6 -2 98 -19 205 -38 107 -19
227 -42 265 -51 39 -9 81 -18 95 -21 24 -5 69 -17 243 -64 39 -10 124 -35 187
-55 63 -20 122 -38 130 -40 8 -1 33 -10 55 -18 22 -9 96 -36 165 -60 179 -64
589 -227 735 -292 84 -37 568 -241 625 -263 51 -20 84 -25 155 -26 125 -1 179
25 295 142 152 154 183 201 531 809 122 211 397 713 523 953 97 183 442 874
520 1040 101 213 248 533 303 660 9 19 24 53 34 75 166 372 313 738 410 1027
49 146 50 148 44 240 -19 272 -114 404 -385 535 -47 22 -155 75 -240 116 -355
172 -461 220 -705 324 -110 46 -213 91 -230 98 -32 13 -281 108 -449 170 -269
99 -773 259 -1091 346 -182 49 -494 127 -615 154 -8 2 -46 10 -83 19 -78 18
-293 65 -352 76 -350 67 -468 87 -509 89 -28 1 -53 4 -56 6 -4 3 -9 3 -11 1z"/>
<path d="M4085 13075 c-56 -15 -120 -43 -180 -78 -94 -56 -302 -181 -320 -193
-406 -268 -632 -432 -880 -639 -467 -389 -869 -824 -1177 -1275 -75 -110 -118
-193 -178 -340 -23 -58 -48 -120 -56 -137 -37 -83 -43 -111 -31 -150 6 -21 11
-40 12 -43 0 -3 20 -66 44 -140 94 -296 143 -425 247 -647 24 -52 44 -97 44
-99 0 -11 234 -471 302 -594 41 -74 90 -162 108 -195 169 -305 533 -855 808
-1220 77 -102 301 -386 311 -395 3 -3 31 -36 62 -75 31 -38 66 -81 79 -95 12
-14 40 -47 63 -74 23 -27 47 -54 52 -60 6 -6 60 -67 120 -136 241 -274 328
-359 447 -441 112 -76 161 -99 221 -99 76 0 117 29 187 135 122 183 274 367
485 583 l121 124 1 -81 c4 -255 132 -485 365 -657 81 -60 197 -117 380 -188
213 -83 271 -132 271 -227 0 -28 -7 -59 -16 -73 -77 -118 -294 -135 -483 -38
-95 49 -141 99 -230 249 -47 79 -99 159 -115 177 -79 91 -188 63 -220 -56 -18
-67 -3 -242 34 -393 28 -113 96 -254 141 -292 70 -59 287 -134 468 -162 35 -5
81 -13 103 -16 44 -7 278 -8 310 -1 11 2 42 7 68 10 106 16 183 39 284 88 310
148 483 429 474 773 -1 44 -4 91 -6 105 -3 14 -7 36 -10 49 -29 155 -146 319
-302 424 -79 53 -135 79 -311 142 -70 25 -157 57 -194 71 -131 49 -198 122
-198 214 0 107 68 171 183 171 131 0 214 -49 398 -236 68 -70 135 -132 149
-137 14 -6 48 -12 77 -13 48 -3 55 -1 97 36 59 52 81 110 80 209 -1 90 -22
168 -74 275 -64 130 -158 234 -229 252 -14 3 -42 1 -63 -5 -125 -38 -109 -38
-215 -4 -54 18 -109 35 -123 38 -14 3 -32 7 -40 9 -8 2 -23 4 -34 4 -13 1 -3
16 41 59 48 46 63 69 78 117 17 57 22 158 10 215 -3 14 -8 41 -11 59 -3 19
-17 67 -31 105 -25 71 -369 934 -402 1011 -10 22 -28 69 -41 105 -13 36 -27
70 -31 75 -4 6 -21 48 -39 95 -17 47 -38 99 -45 115 -16 37 -119 296 -219 550
-112 288 -289 764 -334 905 -61 188 -249 857 -267 950 -2 8 -19 76 -40 150
-50 186 -103 390 -109 420 -2 14 -20 90 -39 170 -62 252 -97 339 -163 405 -60
60 -172 85 -269 60z"/>
<path d="M385 12893 c-5 -21 -10 -46 -12 -57 -2 -10 -14 -66 -27 -125 -22 -95
-37 -168 -51 -241 -3 -14 -14 -72 -25 -130 -11 -58 -22 -120 -25 -137 -3 -18
-7 -48 -10 -65 -3 -18 -8 -44 -10 -58 -3 -14 -7 -38 -10 -55 -12 -91 -27 -193
-30 -215 -2 -14 -7 -47 -10 -75 -4 -27 -8 -61 -10 -75 -8 -52 -31 -284 -40
-400 -3 -41 -8 -97 -10 -125 -28 -326 -28 -1177 0 -1465 2 -19 6 -71 10 -115
3 -44 8 -96 10 -115 2 -19 7 -62 10 -95 9 -97 67 -522 79 -580 3 -11 5 -31 5
-45 1 -18 4 -21 12 -13 8 8 13 77 14 205 3 179 9 313 20 398 2 19 7 62 10 95
3 33 13 107 21 165 15 103 18 126 29 193 3 17 8 44 10 60 10 56 15 85 39 212
13 72 27 154 31 184 4 30 9 63 11 75 24 124 24 453 0 636 -2 14 -6 54 -10 90
-4 36 -11 97 -16 135 -5 39 -11 97 -14 130 -3 33 -8 85 -11 115 -41 396 -36
1061 10 1320 17 101 25 210 15 210 -4 0 -11 -17 -15 -37z"/>
<path d="M761 9184 c-24 -36 -50 -89 -58 -117 -14 -56 -43 -189 -48 -222 -1
-11 -7 -47 -13 -80 -6 -33 -14 -80 -17 -105 -3 -25 -8 -56 -10 -70 -4 -26 -12
-97 -20 -165 -27 -250 -28 -857 0 -1003 1 -9 6 -51 10 -92 4 -41 9 -84 11 -95
3 -11 7 -38 9 -60 7 -53 56 -318 61 -326 2 -3 6 -21 9 -40 9 -53 73 -294 106
-399 242 -765 555 -1400 943 -1913 50 -66 100 -132 111 -146 137 -183 483
-540 715 -741 41 -36 77 -67 80 -70 18 -18 220 -176 295 -231 264 -191 481
-326 786 -487 103 -54 128 -62 232 -66 l69 -3 -6 68 c-3 44 -25 131 -60 239
-49 149 -105 348 -121 429 -12 57 -36 188 -41 221 -2 19 -6 44 -9 55 -2 11 -7
56 -10 100 -4 43 -9 88 -11 100 -5 28 -6 395 0 425 2 14 7 59 11 100 3 41 8
84 10 95 3 11 7 38 10 60 3 22 12 72 20 110 8 39 17 93 21 120 3 28 8 53 10
56 2 3 6 33 10 67 10 93 -32 205 -134 362 -20 30 -192 210 -382 400 -281 281
-447 452 -565 584 -124 138 -275 314 -375 436 -29 35 -206 262 -282 360 -66
87 -215 298 -316 449 -304 454 -543 877 -795 1411 -53 113 -73 144 -122 193
-33 31 -66 57 -74 57 -9 0 -36 -30 -60 -66z"/>
<path d="M10795 7464 c-105 -17 -328 -83 -435 -128 -141 -59 -189 -112 -186
-203 2 -58 22 -88 91 -135 73 -49 80 -70 91 -248 14 -219 6 -968 -11 -1070 -2
-14 -6 -47 -10 -75 -14 -118 -35 -165 -102 -231 -35 -34 -64 -68 -64 -75 -11
-111 14 -157 110 -200 24 -11 62 -24 85 -29 23 -5 55 -12 71 -16 17 -3 111 -8
210 -10 261 -4 393 24 457 99 53 61 49 124 -11 209 -65 91 -65 92 -66 538 0
285 0 285 25 334 30 60 64 86 116 91 132 13 208 -83 232 -295 10 -82 8 -388
-2 -460 -6 -40 -18 -117 -21 -130 -6 -26 -24 -64 -56 -116 -26 -43 -37 -72
-35 -91 2 -15 4 -36 5 -45 2 -38 92 -100 164 -114 12 -2 33 -7 47 -10 14 -3
104 -8 200 -10 192 -4 307 9 402 45 135 52 161 170 57 258 -36 31 -65 79 -73
123 -3 19 -8 139 -11 265 -16 672 -14 649 -47 760 -62 213 -254 342 -493 331
-152 -7 -256 -71 -357 -219 -62 -91 -106 -107 -140 -49 -18 30 -18 52 -2 592
8 304 10 281 -21 308 -31 26 -92 28 -220 6z"/>
<path d="M17830 7250 c-52 -5 -95 -28 -180 -97 -8 -7 -143 -105 -300 -218
-172 -124 -291 -217 -301 -234 -21 -39 -19 -185 3 -207 12 -12 40 -16 127 -17
79 0 114 -4 122 -13 8 -9 12 -169 13 -506 3 -480 3 -495 25 -560 27 -79 74
-160 126 -217 219 -236 681 -195 936 82 93 102 106 250 29 327 -28 28 -60 25
-133 -15 -124 -68 -210 -41 -256 81 -17 44 -18 84 -18 403 0 331 1 355 19 373
16 16 36 18 192 18 170 0 176 1 203 24 l28 24 0 152 c0 139 -2 153 -19 166
-15 11 -60 14 -201 14 -141 0 -186 3 -201 14 -17 13 -19 28 -21 148 -1 73 -2
154 -2 179 -1 65 -15 79 -81 82 -30 1 -80 0 -110 -3z"/>
<path d="M7689 6826 c-2 -2 -26 -7 -54 -10 -119 -13 -296 -82 -421 -163 -95
-61 -172 -155 -195 -238 -51 -185 92 -312 258 -229 66 32 107 77 211 229 59
87 103 119 155 112 59 -8 92 -47 115 -137 12 -47 18 -171 13 -262 -2 -42 -38
-59 -133 -63 -272 -12 -425 -66 -573 -201 -157 -144 -194 -380 -91 -589 80
-162 239 -250 444 -247 131 3 219 34 336 121 38 28 77 51 87 51 9 0 39 -25 66
-56 144 -165 379 -154 565 27 85 83 131 172 131 255 0 31 -5 60 -10 65 -5 5
-29 15 -53 22 -57 16 -86 58 -96 135 -3 31 -8 66 -10 77 -3 11 -5 148 -5 305
0 157 -5 308 -10 335 -5 28 -11 59 -13 70 -32 160 -198 314 -401 371 -54 15
-305 31 -316 20z m60 -1034 c37 -29 47 -182 20 -280 -34 -122 -152 -139 -207
-29 -67 134 11 322 134 326 18 1 42 -7 53 -17z"/>
<path d="M9178 6815 c-242 -60 -408 -287 -409 -560 0 -256 136 -446 453 -628
73 -42 107 -75 119 -116 23 -79 -28 -146 -108 -143 -64 3 -105 37 -257 220
-43 51 -91 99 -107 108 -33 16 -92 12 -117 -9 -82 -67 -35 -358 86 -537 49
-72 86 -93 160 -89 116 5 220 0 300 -16 104 -20 237 -21 322 -4 203 42 380
209 425 403 27 114 20 222 -19 333 -44 124 -215 279 -449 409 -49 27 -106 68
-128 91 -33 36 -39 49 -39 87 0 37 6 51 34 80 62 67 108 48 263 -109 109 -111
145 -131 216 -122 71 10 122 65 130 141 13 126 -109 390 -212 458 -35 24 -65
23 -148 -7 -64 -22 -94 -24 -143 -10 -8 3 -33 7 -55 11 -22 3 -56 9 -75 13
-59 13 -181 11 -242 -4z"/>
<path d="M16004 6809 c-103 -21 -254 -79 -341 -130 -32 -19 -90 -65 -129 -104
-83 -82 -116 -153 -113 -241 4 -101 60 -164 152 -172 104 -8 184 48 287 201
78 115 105 144 147 158 44 14 84 4 117 -30 36 -38 62 -166 60 -291 -2 -123 -8
-129 -135 -135 -264 -11 -419 -63 -553 -186 -116 -107 -167 -214 -168 -359 -1
-100 19 -178 67 -266 38 -67 112 -142 172 -172 96 -50 262 -68 378 -42 59 13
161 61 195 91 36 31 98 69 113 69 7 0 38 -27 69 -59 81 -87 143 -114 254 -112
216 4 451 226 439 413 -4 49 -9 56 -58 69 -106 28 -116 80 -121 604 -3 271 -6
299 -36 376 -57 144 -201 263 -380 314 -96 27 -297 29 -416 4z m155 -1016 c46
-38 49 -226 6 -317 -22 -45 -35 -56 -79 -63 -78 -12 -136 66 -136 182 1 144
128 265 209 198z"/>
<path d="M19303 6815 c-141 -25 -267 -80 -385 -166 -66 -48 -83 -64 -158 -145
-112 -121 -191 -301 -215 -484 -12 -91 -7 -260 10 -345 9 -44 17 -85 19 -92 1
-7 5 -16 9 -19 4 -4 7 -14 7 -23 0 -25 67 -150 109 -206 124 -163 307 -271
511 -300 43 -7 233 -6 275 0 347 52 670 303 779 604 97 269 55 583 -113 836
-90 136 -212 236 -376 306 -98 42 -334 59 -472 34z m128 -417 c48 -32 112
-173 134 -293 2 -11 11 -56 19 -99 15 -73 20 -104 31 -211 7 -61 6 -199 -1
-221 -26 -82 -48 -102 -117 -110 -53 -7 -102 24 -135 83 -23 43 -66 174 -82
253 -5 25 -12 56 -15 70 -3 14 -8 40 -10 59 -3 18 -7 36 -9 40 -9 14 -20 140
-21 226 0 147 47 225 136 225 21 0 51 -10 70 -22z"/>
<path d="M12678 6815 c-2 -1 -30 -5 -63 -9 -73 -8 -206 -39 -258 -61 -20 -8
-55 -33 -76 -54 -83 -83 -57 -218 48 -252 50 -16 97 -50 127 -90 36 -48 122
-195 189 -324 32 -60 83 -159 115 -220 32 -60 90 -173 130 -250 163 -314 184
-353 223 -412 47 -71 96 -103 156 -103 35 0 49 7 86 41 36 34 69 91 196 342
83 166 163 317 176 335 30 40 66 56 93 42 21 -11 83 -117 222 -378 127 -239
227 -371 294 -388 40 -10 108 29 156 89 75 95 85 116 328 657 286 638 277 620
332 671 17 15 57 37 90 50 68 27 118 69 119 102 0 12 2 29 4 38 5 28 -31 95
-66 121 -88 65 -429 73 -571 13 -92 -38 -117 -137 -61 -234 57 -100 57 -101
44 -150 -16 -63 -93 -218 -131 -263 -58 -70 -102 -45 -169 96 -53 112 -74 181
-66 214 4 15 21 45 39 67 33 40 53 86 50 115 -1 8 -2 27 -3 42 -1 34 -43 84
-90 107 -20 10 -65 24 -101 31 -73 15 -364 21 -455 10 -149 -19 -173 -23 -229
-41 -113 -38 -152 -88 -147 -186 1 -15 32 -54 85 -105 98 -97 110 -126 82
-213 -19 -60 -69 -140 -102 -161 -44 -30 -91 23 -170 192 -59 126 -64 164 -30
230 42 84 30 156 -35 205 -30 23 -87 50 -114 56 -5 1 -35 7 -65 13 -46 10
-373 23 -382 15z"/>
<path d="M5023 4307 c-59 -32 -94 -77 -98 -131 -6 -71 13 -115 65 -150 78 -54
116 -99 131 -158 19 -79 16 -806 -6 -1118 -19 -286 -31 -383 -54 -444 -6 -15
-41 -57 -76 -93 -36 -36 -66 -75 -67 -86 -7 -97 9 -146 62 -190 52 -44 83 -48
270 -32 117 9 467 10 660 1 319 -15 393 -11 512 28 177 58 297 167 394 359 19
37 31 67 28 67 -4 0 -2 6 4 13 9 10 16 40 37 147 8 39 8 190 1 238 -28 178
-133 334 -288 428 -85 52 -89 87 -18 165 92 102 143 248 144 409 1 122 -5 165
-34 242 -62 166 -200 278 -386 312 -63 12 -141 14 -379 10 -385 -7 -525 -7
-710 0 -142 5 -152 4 -192 -17z m949 -363 c62 -60 89 -146 92 -298 3 -128 -16
-213 -62 -275 -29 -39 -76 -61 -132 -61 -35 0 -43 4 -60 32 -18 30 -19 52 -19
301 0 181 4 276 11 293 27 58 113 62 170 8z m37 -1013 c83 -50 121 -162 121
-359 0 -100 -13 -163 -46 -220 -41 -69 -142 -106 -212 -77 -63 27 -79 105 -80
387 -2 247 4 277 58 295 47 16 106 6 159 -26z"/>
<path d="M7370 4305 c-176 -37 -315 -117 -362 -209 -32 -60 -30 -156 2 -216
27 -48 88 -97 135 -107 17 -3 69 -6 118 -5 220 3 431 115 471 251 38 128 -3
225 -114 274 -54 24 -168 30 -250 12z"/>
<path d="M9348 4293 c-113 -29 -294 -88 -364 -118 -62 -27 -123 -80 -140 -121
-19 -45 -11 -110 17 -140 13 -14 49 -39 81 -56 71 -38 88 -70 88 -168 0 -68
-11 -107 -33 -122 -5 -3 -39 10 -74 29 -163 90 -311 94 -477 14 -199 -96 -355
-315 -425 -596 -24 -96 -34 -300 -18 -385 4 -25 10 -61 13 -80 9 -60 63 -212
104 -292 104 -207 270 -356 425 -383 51 -9 136 -9 178 0 59 13 154 66 202 113
108 105 131 101 150 -23 1 -5 3 -20 3 -32 4 -44 28 -54 119 -52 47 1 103 5
126 10 23 4 62 10 86 14 77 11 225 65 277 100 60 41 94 97 94 153 0 59 -15 91
-70 147 -27 28 -54 64 -61 80 -9 22 -12 259 -13 940 -2 970 0 935 -50 977 -29
25 -120 21 -238 -9z m-425 -1017 c77 -32 110 -153 110 -406 0 -149 -5 -251
-14 -312 -5 -29 -11 -67 -13 -84 -13 -76 -63 -155 -111 -173 -28 -11 -96 7
-123 32 -35 32 -69 105 -88 188 -18 77 -25 331 -11 414 4 22 9 56 13 75 9 58
51 170 79 212 25 38 71 67 108 68 10 0 32 -6 50 -14z"/>
<path d="M16530 3724 c-48 -48 -144 -111 -188 -124 -80 -23 -126 -22 -242 4
-182 40 -219 45 -316 41 -307 -11 -583 -214 -644 -475 -16 -65 -15 -185 1
-255 16 -72 72 -184 119 -241 56 -67 61 -93 24 -119 -58 -41 -128 -122 -155
-179 -66 -140 -48 -233 80 -399 34 -44 32 -59 -15 -91 -107 -72 -134 -228 -64
-372 49 -103 134 -177 260 -227 120 -47 194 -60 370 -63 237 -4 351 18 530 99
123 55 254 182 319 306 51 97 72 173 76 276 5 97 -8 160 -47 243 -45 96 -116
156 -227 191 -33 11 -263 9 -331 -2 -19 -4 -53 -9 -75 -13 -22 -3 -49 -8 -60
-10 -230 -45 -351 -6 -349 113 2 78 14 83 178 78 198 -6 334 25 471 109 201
123 287 280 286 522 -1 100 2 115 21 140 12 16 25 31 29 34 14 10 68 127 84
182 9 31 15 82 14 113 -2 56 -30 133 -52 147 -26 17 -63 6 -97 -28z m-632
-351 c64 -48 101 -169 106 -353 5 -167 -57 -280 -155 -280 -95 0 -154 123
-166 346 -7 130 5 195 48 253 43 60 114 74 167 34z m-123 -1598 c72 2 160 6
196 10 63 7 67 6 98 -22 28 -24 33 -36 34 -75 2 -127 -170 -198 -390 -163
-110 17 -212 111 -215 197 -2 77 4 80 92 62 32 -7 110 -11 185 -9z"/>
<path d="M12248 3665 c-2 -2 -21 -6 -42 -9 -110 -17 -235 -68 -343 -139 -87
-57 -133 -100 -172 -162 -128 -202 -16 -420 175 -340 42 18 118 93 154 154
107 181 156 221 225 188 60 -29 84 -105 90 -281 4 -158 -2 -166 -125 -172
-194 -9 -293 -35 -407 -106 -170 -106 -265 -289 -250 -480 8 -103 14 -124 51
-204 52 -111 125 -180 226 -217 83 -30 197 -37 285 -17 55 12 148 59 185 93
78 70 107 78 139 36 91 -121 183 -160 313 -134 110 22 207 93 282 210 40 60
55 104 62 170 6 61 -8 85 -62 99 -32 9 -43 19 -61 56 -30 61 -35 125 -38 485
-3 348 -11 412 -68 507 -43 71 -72 103 -132 148 -113 84 -225 119 -383 118
-55 0 -102 -1 -104 -3z m67 -1040 c26 -25 28 -38 28 -161 0 -132 -42 -214
-107 -214 -73 0 -111 64 -111 185 0 62 5 89 22 120 47 89 120 119 168 70z"/>
<path d="M17518 3665 c-1 -2 -23 -5 -48 -8 -102 -11 -251 -78 -359 -161 -107
-83 -213 -215 -270 -339 -29 -65 -69 -208 -79 -289 -15 -120 -5 -343 19 -405
5 -13 6 -23 4 -23 -9 0 47 -145 77 -200 79 -145 214 -269 353 -323 129 -50
307 -62 460 -33 175 34 388 170 513 329 91 115 157 256 177 375 3 17 8 47 11
65 7 44 7 180 -1 247 -3 30 -17 96 -30 145 -83 317 -297 547 -567 609 -54 12
-250 21 -260 11z m49 -424 c57 -36 125 -221 149 -411 3 -25 7 -52 9 -60 16
-58 25 -321 14 -365 -12 -44 -34 -77 -60 -91 -77 -40 -157 10 -190 118 -15 47
-40 140 -44 161 -2 10 -6 26 -9 35 -3 9 -7 33 -10 52 -3 19 -7 44 -10 55 -2
11 -7 40 -11 65 -4 25 -9 54 -12 65 -2 11 -7 68 -10 127 -10 176 32 265 127
267 14 1 39 -8 57 -18z"/>
<path d="M7610 3649 c-125 -18 -246 -53 -413 -118 -179 -71 -240 -126 -239
-215 2 -78 18 -103 106 -166 58 -41 64 -79 70 -417 4 -210 -6 -336 -31 -403
-9 -25 -38 -68 -64 -95 -27 -28 -55 -64 -63 -79 -27 -52 -8 -145 39 -192 51
-51 222 -84 437 -85 311 0 468 75 468 225 0 52 -15 82 -70 140 -90 95 -85 50
-88 735 -3 638 -6 669 -49 672 -10 1 -27 2 -38 3 -11 1 -40 -1 -65 -5z"/>
<path d="M10298 3656 c-1 -2 -34 -6 -73 -10 -38 -3 -82 -8 -97 -11 -16 -3 -40
-7 -54 -10 -55 -9 -152 -47 -185 -71 -73 -54 -96 -133 -63 -219 12 -32 28 -49
70 -74 81 -50 116 -95 159 -207 21 -54 53 -138 71 -186 19 -48 34 -90 34 -94
0 -3 6 -20 14 -37 17 -38 247 -661 271 -732 49 -148 47 -249 -5 -305 -55 -59
-120 -25 -133 70 -27 202 -159 307 -302 241 -107 -49 -166 -168 -160 -323 4
-113 37 -193 110 -264 80 -79 169 -115 295 -120 164 -6 288 40 402 149 174
168 282 405 423 930 38 145 131 458 171 576 78 236 117 297 218 348 93 46 125
102 113 195 -8 56 -33 88 -95 119 -61 30 -48 27 -179 32 -212 7 -356 -64 -368
-182 -3 -33 3 -55 35 -118 34 -65 57 -133 53 -153 -1 -3 -4 -30 -7 -61 -9 -92
-48 -192 -93 -241 -44 -47 -75 -18 -141 132 -71 162 -76 210 -32 310 67 153
13 263 -150 302 -40 9 -293 21 -302 14z"/>
<path d="M13810 3653 c-131 -22 -512 -178 -586 -241 -51 -44 -75 -122 -54
-178 5 -13 38 -52 73 -87 46 -45 66 -72 70 -97 7 -38 0 -588 -8 -660 -14 -134
-19 -148 -67 -188 -100 -85 -72 -226 56 -283 103 -45 328 -55 529 -23 51 8
122 36 155 61 74 56 79 128 17 257 -47 99 -51 134 -49 447 1 272 7 333 35 400
22 51 66 79 124 79 135 0 179 -119 179 -485 -1 -293 -17 -397 -76 -486 -32
-48 -41 -70 -41 -104 0 -139 105 -189 388 -185 285 3 407 37 452 123 32 62 21
148 -25 197 -39 42 -70 115 -76 175 -3 33 -8 150 -11 260 -12 387 -13 432 -20
506 -16 184 -59 299 -142 382 -86 87 -174 126 -295 132 -88 4 -158 -11 -222
-49 -49 -29 -128 -113 -151 -163 -15 -32 -59 -73 -78 -73 -5 0 -18 10 -29 22
-15 17 -18 36 -17 92 2 93 -18 142 -65 161 -20 8 -37 14 -38 14 -2 -1 -14 -4
-28 -6z"/>
<path d="M19030 3635 c-182 -51 -474 -182 -528 -238 -36 -38 -54 -103 -41
-150 8 -30 82 -117 100 -117 4 0 17 -21 30 -47 21 -44 23 -60 22 -218 0 -170
-9 -424 -18 -522 -7 -72 -17 -94 -69 -150 -51 -54 -64 -98 -46 -161 14 -52 71
-103 142 -124 165 -51 495 -37 617 26 41 22 91 83 93 114 3 57 -5 85 -45 169
l-42 88 -2 310 c-2 307 4 379 35 457 25 62 133 89 198 49 33 -20 69 -84 79
-141 4 -19 9 -48 12 -65 12 -63 10 -485 -4 -567 -16 -105 -23 -124 -67 -188
-56 -81 -45 -170 25 -222 40 -30 61 -38 114 -44 22 -3 47 -7 55 -10 19 -7 251
-6 320 1 214 22 297 71 308 183 5 55 -9 91 -67 172 -55 76 -51 45 -65 540 -6
202 -15 380 -21 408 -2 11 -7 42 -11 69 -10 60 -9 54 -18 83 -39 118 -121 217
-222 267 -74 37 -102 45 -187 48 -157 7 -255 -46 -353 -189 -53 -80 -79 -101
-109 -90 -21 9 -32 47 -30 109 2 75 -9 115 -38 143 -33 31 -73 33 -167 7z"/>
<path d="M2460 3354 c0 -5 177 -221 200 -244 7 -7 112 -132 125 -148 5 -7 19
-23 31 -35 11 -12 49 -56 85 -97 35 -41 69 -80 74 -86 6 -6 44 -48 85 -94 165
-184 214 -234 450 -470 454 -454 885 -816 1435 -1207 426 -302 1003 -654 1350
-823 81 -40 379 -150 404 -150 3 0 14 13 23 29 16 30 16 30 -15 53 -18 13
-108 71 -202 128 -731 447 -1197 836 -1690 1409 -188 219 -329 353 -472 450
-55 38 -173 99 -378 197 -95 45 -320 171 -435 243 -101 63 -323 214 -346 236
-7 5 -24 19 -40 30 -125 90 -355 289 -535 465 -80 78 -149 131 -149 114z"/>
</g>
</svg>
